<svg width="44" height="44" viewBox="0 0 44 44" fill="none" xmlns="http://www.w3.org/2000/svg">
<g clip-path="url(#clip0_826_1603)">
<path d="M43.3377 27.3234C40.4012 39.1079 28.4618 46.2803 16.6737 43.3394C4.88571 40.3984 -2.28343 28.465 0.657746 16.6793C3.59893 4.89372 15.5324 -2.28202 27.3178 0.659384C39.1032 3.60078 46.2789 15.5349 43.3377 27.3234Z" fill="#F7931A"/>
<path d="M31.7026 18.8662C32.14 15.9387 29.911 14.3648 26.8626 13.315L27.8526 9.34946L25.4379 8.74798L24.4734 12.6092C23.8394 12.4512 23.1877 12.3012 22.54 12.1542L23.508 8.2675L21.0957 7.66602L20.1086 11.63L15.2395 10.4239L14.5971 13.0026C14.5971 13.0026 16.3883 13.4131 16.3505 13.4386C17.3282 13.6828 17.5055 14.3296 17.4756 14.8426L14.7665 25.7062C14.6468 26.0032 14.3437 26.4485 13.6603 26.2782C13.6845 26.3134 11.9056 25.8382 11.9056 25.8382L10.707 28.6056L15.5691 29.8332L14.5698 33.8449L16.981 34.4464L17.971 30.4778C18.631 30.6565 19.269 30.8215 19.8943 30.9768L18.9082 34.9269L21.3225 35.5284L22.3218 31.5244C26.4387 32.3032 29.5345 31.989 30.8358 28.2684C31.8857 25.2709 30.7844 23.5417 28.6182 22.4135C30.1956 22.0483 31.3836 21.0112 31.7007 18.8678L31.7026 18.8662ZM26.185 26.6012C25.437 29.5987 20.3913 27.9788 18.754 27.5718L20.0798 22.2577C21.7161 22.6661 26.9634 23.4748 26.1859 26.6008L26.185 26.6012ZM26.9339 18.8238C26.2532 21.5518 22.0518 20.1658 20.6883 19.8256L21.8886 15.0046C23.2526 15.3451 27.6419 15.9792 26.9321 18.8235" fill="white"/>
</g>
<defs>
<clipPath id="clip0_826_1603">
<rect width="44" height="44" fill="white"/>
</clipPath>
</defs>
</svg>
