<svg width="566" height="153" viewBox="0 0 566 153" fill="none" xmlns="http://www.w3.org/2000/svg"><g clip-path="url(#clip0_878_2438)"><path d="M0 63h566" stroke="url(#paint0_linear_878_2438)" stroke-opacity=".2" stroke-dasharray="6 6"/><path d="M-44 247l36.16-57.725c.225-.359.558-.637.952-.795l3.365-1.346a2 2 0 001.228-1.516l9.693-56.127c.272-1.572 2.184-2.209 3.344-1.114l9.389 8.859a2 2 0 003.12-.481l8.006-14.376c.205-.367.52-.661.902-.839l4.76-2.221c.428-.2.772-.546.97-.975l8.251-17.916c.737-1.6 3.032-1.535 3.677.104l11.009 27.948c.702 1.782 3.265 1.653 3.785-.19l6.27-22.219a2 2 0 013.06-1.104l14.222 9.788a2 2 0 01.556.577l10.018 15.806c.845 1.333 2.83 1.207 3.5-.222l7.178-15.312c.188-.4.503-.727.896-.929l5.855-3.011c.359-.185.653-.473.845-.828l7.152-13.23a2 2 0 011.759-1.05h14.172a2 2 0 001.739-1.011L150.7 79.94a1.999 1.999 0 011.739-1.012h3.061a2 2 0 001.819-1.168l6.63-14.497a2.002 2.002 0 011.135-1.048l3.996-1.453c.467-.17.855-.508 1.086-.948l7.092-13.472a2 2 0 011.769-1.069h15.235a2 2 0 001.948-1.547l7.992-34.401c.49-2.11 3.519-2.043 3.915.087l10.02 53.952c.365 1.967 3.073 2.238 3.821.383l6.945-17.221a2 2 0 011.854-1.253h2.472c.732 0 1.405-.4 1.755-1.042L244 27.704c.87-1.596 3.245-1.298 3.694.463l8.375 32.829a2 2 0 001.938 1.505H284" stroke="#026FD3" stroke-width="2" stroke-linecap="round"/><path stroke="url(#paint1_linear_878_2438)" stroke-width="2" stroke-dasharray="2 2" d="M286.707 62.293l49.498 49.497"/><path stroke="url(#paint2_linear_878_2438)" stroke-width="2" stroke-dasharray="2 2" d="M285.293 62.293l49.497-49.498"/></g><defs><linearGradient id="paint0_linear_878_2438" x1="580.5" y1="63" x2="0" y2="63" gradientUnits="userSpaceOnUse"><stop stop-opacity="0"/><stop offset=".13"/><stop offset=".87"/><stop offset="1" stop-opacity="0"/></linearGradient><linearGradient id="paint1_linear_878_2438" x1="335.709" y1="112.709" x2="286" y2="63" gradientUnits="userSpaceOnUse"><stop stop-color="#DB4635" stop-opacity="0"/><stop offset="1" stop-color="#DB4635"/></linearGradient><linearGradient id="paint2_linear_878_2438" x1="335.709" y1="13.291" x2="286" y2="63" gradientUnits="userSpaceOnUse"><stop stop-color="#0FAF59" stop-opacity="0"/><stop offset="1" stop-color="#0FAF59"/></linearGradient><clipPath id="clip0_878_2438"><path fill="#fff" d="M0 0h566v153H0z"/></clipPath></defs></svg>