<svg width="48" height="48" viewBox="0 0 48 48" fill="none" xmlns="http://www.w3.org/2000/svg"><rect width="48" height="48" rx="10" fill="#0F8AFF"/><g clip-path="url(#clip0_722_336)"><path d="M25 13v-1h-2v1h2zm0 12v-1h-2v1h2zm-2 4v1h2v-1h-2zm-7-3h-1v2h1v-2zm16 2h1v-2h-1v2zm-10.423-8.01l-9.415 14.465 1.676 1.09 9.415-14.464-1.676-1.09zm3.17 1.091l9.415 14.464 1.676-1.09-9.415-14.464-1.676 1.09zM26 18a2 2 0 01-2 2v2a4 4 0 004-4h-2zm-2 2a2 2 0 01-2-2h-2a4 4 0 004 4v-2zm-2-2a2 2 0 012-2v-2a4 4 0 00-4 4h2zm2-2a2 2 0 012 2h2a4 4 0 00-4-4v2zm-1-3v2h2v-2h-2zm0 12v4h2v-4h-2zm-7 3h16v-2H16v2z" fill="#00498F"/></g><defs><clipPath id="clip0_722_336"><path fill="#fff" transform="translate(12 12)" d="M0 0h24v24H0z"/></clipPath></defs></svg>