<svg width="48" height="48" viewBox="0 0 48 48" fill="none" xmlns="http://www.w3.org/2000/svg"><rect width="48" height="48" rx="10" fill="#34CB00"/><g clip-path="url(#clip0_722_887)"><path d="M33 21v8h-3m-13-3v-5m0 5h-4v5.406l7.9 3.294c.8.3 1.7.3 2.5.1L34 31s-.6-2-3-2h-4.9M17 26c1.6 0 3.1.7 4 2h3c1.5 0 3 1.5 3 3h-7m5-14s-1-4-4-4c-1.1 0-2 .9-2 2s.9 2 2 2h4zm0 0s1-4 4-4c1.1 0 2 .9 2 2s-.9 2-2 2h-4zm-10 0h20v4H15v-4z" stroke="#1D7000" stroke-width="2" stroke-miterlimit="10"/></g><defs><clipPath id="clip0_722_887"><path fill="#fff" transform="translate(12 12)" d="M0 0h24v24H0z"/></clipPath></defs></svg>