<svg width="48" height="48" viewBox="0 0 48 48" fill="none" xmlns="http://www.w3.org/2000/svg"><rect width="48" height="48" rx="10" fill="#00C8BC"/><g clip-path="url(#clip0_722_95)" stroke="#005E58"><path d="M25.942 25.983a1.144 1.144 0 00-.433-.902l-.002-.002a3.67 3.67 0 00-.847-.5l-.694-.29v.016l-.305-.117-.48-.186-.012-.005-.01-.003a4.856 4.856 0 01-1.81-1.089 1.832 1.832 0 01-.45-1.262l.001-.012v-.013a1.623 1.623 0 01.617-1.304 3.643 3.643 0 011.991-.71l.476-.023v-.021l.467.014a7.625 7.625 0 012.333.44l-.304.758a8.263 8.263 0 00-1.975-.417l-.521-.045v-.008l-.573.084c-.35.052-.682.156-.935.36a1.1 1.1 0 00-.418.873 1.179 1.179 0 00.38.896l.01.008.008.007c.253.212.538.381.845.502l.66.26v.031l.335.117c.66.233 1.295.53 1.896.887.282.178.52.416.698.698.143.256.216.545.21.838v.027a1.772 1.772 0 01-.636 1.424 3.6 3.6 0 01-2.02.721l-.48.02v.008h-.481a7.451 7.451 0 01-2.57-.458v-.798c.285.106.575.197.87.274a8.519 8.519 0 001.66.295l.523.04v.003l.007-.002.008.001v-.002l.568-.096c.371-.063.716-.184.976-.41.278-.24.416-.565.417-.927zm0 0v-.001l-.5-.001.5.002s0 0 0 0z" fill="#005E58"/><path d="M17.346 19.93l1.586-5.693-5.797.73" stroke-width="2" stroke-miterlimit="10" stroke-linecap="square"/><path d="M23.789 35a11 11 0 01-4.857-20.763" stroke-width="2" stroke-miterlimit="10"/><path d="M30.654 28.071l-1.586 5.692 5.797-.729" stroke-width="2" stroke-miterlimit="10" stroke-linecap="square"/><path d="M24.21 13a11 11 0 014.858 20.763" stroke-width="2" stroke-miterlimit="10"/></g><defs><clipPath id="clip0_722_95"><path fill="#fff" transform="translate(12 12)" d="M0 0h24v24H0z"/></clipPath></defs></svg>