<svg width="16" height="16" viewBox="0 0 16 16" xmlns="http://www.w3.org/2000/svg">
    <path 
        d="M8.61073 2.87197L8.17387 3.29219C8.03653 3.42413 7.96054 3.6005 7.96054 3.78824C7.96054 3.97618 8.03653 4.16851 8.17387 4.30045L10.9808 7.01733L2.06298 7.01733C1.66081 7.01733 1.33333 7.29978 1.33333 7.68662L1.33333 8.28123C1.33333 8.66797 1.66081 9.02186 2.06298 9.02186H11.0126L8.17387 11.7333C8.03653 11.8655 7.96054 12.0317 7.96054 12.2197C7.96054 12.4074 8.03653 12.5789 8.17387 12.7109L8.61073 13.1288C8.89506 13.4023 9.35761 13.4012 9.64195 13.1277L14.4538 8.49744C14.5908 8.36561 14.6667 8.18872 14.6667 7.99941V7.99743C14.6667 7.80959 14.5908 7.63312 14.4538 7.50128L9.64206 2.87197C9.35783 2.59829 8.89506 2.59829 8.61073 2.87197Z"
        fill="#026FD3"
        ></path>
</svg>