<svg width="212" height="63" viewBox="0 0 212 63" fill="none" xmlns="http://www.w3.org/2000/svg"><g clip-path="url(#clip0_161_994)"><path d="M204.148 0H7.852C3.515 0 0 3.526 0 7.875v47.25C0 59.475 3.515 63 7.852 63h196.296c4.337 0 7.852-3.526 7.852-7.875V7.875C212 3.525 208.485 0 204.148 0z" fill="#000"/><path d="M204.148 1.26c3.643 0 6.596 2.961 6.596 6.615v47.25c0 3.654-2.953 6.615-6.596 6.615H7.852c-3.643 0-6.596-2.961-6.596-6.615V7.875c0-3.654 2.953-6.615 6.596-6.615h196.296zm0-1.26H7.852C3.533 0 0 3.544 0 7.875v47.25C0 59.456 3.533 63 7.852 63h196.296c4.319 0 7.852-3.544 7.852-7.875V7.875C212 3.544 208.467 0 204.148 0z" fill="#A6A6A6"/><path d="M114.265 9.88v7.839h-1.481l-3.323-5.437v5.437h-1.476V9.88h1.476l3.333 5.442V9.881h1.471zm-7.53 3.72v.404c0 .592-.079 1.125-.237 1.6a3.45 3.45 0 01-.671 1.2c-.289.33-.635.583-1.035.759a3.296 3.296 0 01-1.337.263c-.483 0-.927-.088-1.331-.263a2.974 2.974 0 01-1.041-.76 3.47 3.47 0 01-.682-1.2 4.952 4.952 0 01-.242-1.599v-.403c0-.596.081-1.13.242-1.6.161-.47.386-.87.676-1.2a2.9 2.9 0 011.036-.764 3.304 3.304 0 011.331-.264c.491 0 .936.088 1.337.264a2.9 2.9 0 011.036.764c.293.33.519.73.676 1.2a4.92 4.92 0 01.242 1.6zm-1.493.404v-.414c0-.427-.039-.802-.118-1.125a2.425 2.425 0 00-.349-.824 1.482 1.482 0 00-.568-.5 1.66 1.66 0 00-.763-.173c-.286 0-.54.057-.762.172a1.514 1.514 0 00-.558.501 2.51 2.51 0 00-.354.824 4.768 4.768 0 00-.118 1.125v.414c0 .424.039.799.118 1.125.082.327.2.603.354.83.157.222.347.39.569.505.222.115.476.173.762.173.286 0 .54-.058.762-.173a1.5 1.5 0 00.558-.506c.154-.226.271-.502.349-.829.079-.326.118-.701.118-1.125zM94.529 9.88v7.839h-1.47V9.88h1.47zm2.426 0v1.169h-6.296V9.88h6.296zm-7.214 0v7.839h-1.476V9.88h1.476zm-7.45 0v7.839h-1.47V9.88h1.47zm2.426 0v1.169h-6.296V9.88h6.296zm-6.913 6.676v1.163H73.65v-1.163h4.154zM74.1 9.88v7.838h-1.476V9.88H74.1zm3.162 3.235v1.136H73.65v-1.136h3.612zm.526-3.235v1.168H73.65V9.88h4.138zm-6.559 3.785v3.052a2.507 2.507 0 01-.542.48c-.244.172-.562.32-.956.446-.393.122-.876.183-1.449.183a3.63 3.63 0 01-1.363-.247 2.939 2.939 0 01-1.063-.738 3.328 3.328 0 01-.687-1.184c-.161-.467-.242-1-.242-1.599v-.517c0-.6.075-1.132.226-1.599a3.39 3.39 0 01.655-1.184 2.833 2.833 0 011.025-.737 3.4 3.4 0 011.342-.253c.662 0 1.206.109 1.631.328.43.219.759.52.988.904.229.38.372.819.43 1.314h-1.44a1.987 1.987 0 00-.235-.716 1.219 1.219 0 00-.505-.485c-.215-.118-.494-.177-.837-.177-.29 0-.546.057-.768.172a1.519 1.519 0 00-.558.5 2.45 2.45 0 00-.343.813 4.916 4.916 0 00-.113 1.11v.527c0 .42.043.793.129 1.12.085.323.209.595.37.818.165.219.367.386.606.5.244.112.52.168.827.168.28 0 .51-.024.692-.07.187-.05.335-.11.446-.178a1.25 1.25 0 00.258-.2v-1.469H68.2v-1.082h3.028zm35.776 20.591c-3.69 0-6.705 2.82-6.705 6.694s3.015 6.694 6.705 6.694 6.706-2.835 6.706-6.694-3.016-6.694-6.706-6.694zm0 10.757c-2.026 0-3.769-1.67-3.769-4.063 0-2.394 1.743-4.064 3.769-4.064s3.769 1.654 3.769 4.064-1.743 4.063-3.769 4.063zm-14.62-10.757c-3.69 0-6.706 2.82-6.706 6.694s3.016 6.694 6.706 6.694c3.69 0 6.705-2.835 6.705-6.694s-3.015-6.694-6.705-6.694zm0 10.757c-2.026 0-3.769-1.67-3.769-4.063 0-2.394 1.743-4.064 3.769-4.064s3.769 1.654 3.769 4.064-1.743 4.063-3.77 4.063zm-17.4-8.71v2.836h6.784c-.204 1.59-.738 2.772-1.539 3.575-.99.992-2.528 2.079-5.23 2.079-4.176 0-7.443-3.37-7.443-7.56 0-4.19 3.267-7.56 7.444-7.56 2.246 0 3.894.882 5.104 2.032l1.994-2c-1.696-1.623-3.942-2.867-7.114-2.867-5.716 0-10.521 4.662-10.521 10.41 0 5.75 4.805 10.411 10.521 10.411 3.094 0 5.418-1.008 7.24-2.913 1.868-1.875 2.45-4.52 2.45-6.647 0-.661-.048-1.276-.158-1.78h-9.532v-.015zm71.154 2.206c-.55-1.497-2.246-4.269-5.716-4.269-3.471 0-6.298 2.71-6.298 6.694 0 3.749 2.827 6.694 6.627 6.694 3.063 0 4.837-1.874 5.559-2.961l-2.277-1.528c-.753 1.118-1.79 1.859-3.282 1.859s-2.559-.678-3.235-2.032l8.936-3.701-.299-.756h-.015zm-9.108 2.236c-.079-2.583 1.994-3.906 3.486-3.906 1.162 0 2.151.583 2.481 1.418l-5.967 2.488zm-7.256 6.49h2.937V27.546h-2.937v19.687zm-4.805-11.498h-.094c-.66-.788-1.916-1.497-3.518-1.497-3.345 0-6.407 2.946-6.407 6.726s3.062 6.678 6.407 6.678c1.586 0 2.858-.71 3.518-1.528h.094v.96c0 2.568-1.366 3.938-3.565 3.938-1.79 0-2.905-1.291-3.36-2.378l-2.56 1.07c.738 1.78 2.685 3.954 5.92 3.954 3.439 0 6.345-2.032 6.345-6.977V34.65h-2.78v1.087zm-3.36 9.26c-2.026 0-3.722-1.7-3.722-4.031 0-2.331 1.696-4.08 3.722-4.08 2.025 0 3.564 1.733 3.564 4.08 0 2.346-1.57 4.032-3.564 4.032zm38.285-17.45h-7.019v19.687h2.936V39.77h4.099c3.251 0 6.438-2.363 6.438-6.111 0-3.749-3.187-6.111-6.438-6.111h-.016zm.079 9.497h-4.162v-6.757h4.162c2.198 0 3.439 1.827 3.439 3.37 0 1.544-1.241 3.371-3.439 3.371v.016zm18.106-2.835c-2.12 0-4.318.945-5.229 3.008l2.607 1.087c.549-1.087 1.586-1.45 2.669-1.45 1.508 0 3.062.914 3.078 2.537v.204c-.534-.299-1.665-.756-3.062-.756-2.811 0-5.653 1.544-5.653 4.426 0 2.63 2.292 4.331 4.868 4.331 1.963 0 3.062-.882 3.737-1.921h.094v1.512h2.827v-7.544c0-3.497-2.607-5.45-5.967-5.45l.031.016zm-.361 10.789c-.958 0-2.293-.489-2.293-1.67 0-1.512 1.665-2.095 3.109-2.095 1.288 0 1.901.284 2.67.662a3.548 3.548 0 01-3.486 3.118v-.015zm16.614-10.364l-3.36 8.537h-.094l-3.487-8.537h-3.156l5.229 11.939-2.983 6.63h3.062l8.056-18.569h-3.267zm-26.398 12.6h2.937V27.547h-2.937v19.687z" fill="#fff"/><path d="M32.538 30.587L15.814 48.384a4.52 4.52 0 004.365 3.355c.832 0 1.618-.22 2.293-.63l.047-.032 18.813-10.883-8.81-9.623.016.016z" fill="#EA4335"/><path d="M49.45 27.563h-.015l-8.119-4.741-9.155 8.174 9.187 9.214 8.087-4.678a4.539 4.539 0 002.371-3.985 4.482 4.482 0 00-2.355-3.969v-.015z" fill="#FBBC04"/><path d="M15.814 14.616a4.743 4.743 0 00-.157 1.165v31.437c0 .41.047.788.157 1.166l17.29-17.341-17.29-16.427z" fill="#4285F4"/><path d="M32.663 31.5l8.653-8.678-18.797-10.93a4.496 4.496 0 00-2.34-.647c-2.088 0-3.847 1.434-4.365 3.355l16.85 16.884v.016z" fill="#34A853"/></g><defs><clipPath id="clip0_161_994"><path fill="#fff" d="M0 0h212v63H0z"/></clipPath></defs></svg>