<svg width="188" height="63" viewBox="0 0 188 63" fill="none" xmlns="http://www.w3.org/2000/svg"><g opacity=".3" clip-path="url(#clip0_161_959)"><path d="M173.029 0H14.979c-.575 0-1.145 0-1.72.003-.48.004-.957.013-1.443.02a20.71 20.71 0 00-3.148.279 10.47 10.47 0 00-2.987.987 10.115 10.115 0 00-2.543 1.857 9.856 9.856 0 00-1.85 2.553 10.415 10.415 0 00-.983 2.998 20.514 20.514 0 00-.281 3.153c-.015.483-.016.967-.024 1.45v36.405c.008.489.01.963.024 1.452.012 1.057.106 2.11.281 3.153.173 1.044.504 2.056.982 3a9.777 9.777 0 001.851 2.542 9.857 9.857 0 002.543 1.856c.94.48 1.947.814 2.987.994a21.09 21.09 0 003.148.278c.486.01.963.017 1.444.017.574.003 1.143.003 1.72.003h158.049c.564 0 1.138 0 1.703-.003.479 0 .97-.006 1.448-.017a20.81 20.81 0 003.142-.278 10.664 10.664 0 002.998-.994 9.848 9.848 0 002.541-1.856 10.071 10.071 0 001.856-2.543c.475-.944.803-1.956.973-2.999.175-1.042.273-2.096.292-3.153.006-.49.006-.963.006-1.452.012-.572.012-1.141.012-1.723V15.02c0-.577 0-1.15-.012-1.72 0-.483 0-.967-.006-1.45a21.364 21.364 0 00-.292-3.154 10.448 10.448 0 00-.973-2.997 10.165 10.165 0 00-4.397-4.41 10.604 10.604 0 00-2.998-.987 20.433 20.433 0 00-3.142-.279c-.478-.008-.969-.017-1.448-.02C174.167 0 173.593 0 173.029 0z" fill="#A6A6A6"/><path d="M13.267 61.622c-.478 0-.945-.006-1.42-.017a19.887 19.887 0 01-2.937-.257 9.23 9.23 0 01-2.603-.863 8.494 8.494 0 01-2.194-1.6 8.38 8.38 0 01-1.604-2.2 9.028 9.028 0 01-.853-2.61 19.6 19.6 0 01-.261-2.954c-.01-.332-.023-1.438-.023-1.438V13.3s.013-1.09.023-1.409a19.56 19.56 0 01.26-2.949 9.08 9.08 0 01.854-2.617 8.462 8.462 0 011.594-2.202 8.745 8.745 0 012.204-1.61 9.133 9.133 0 012.597-.857c.974-.16 1.96-.246 2.947-.259l1.417-.019h161.456l1.435.02c.978.012 1.954.097 2.919.256a9.323 9.323 0 012.626.863 8.802 8.802 0 013.794 3.812c.409.818.692 1.693.84 2.597.164.982.255 1.976.274 2.972.004.446.004.925.004 1.402.013.59.012 1.153.012 1.72v32.962c0 .572.001 1.13-.012 1.694 0 .512 0 .98-.006 1.464a19.976 19.976 0 01-.269 2.92 9.024 9.024 0 01-.848 2.63 8.626 8.626 0 01-1.595 2.182 8.519 8.519 0 01-2.199 1.61 9.195 9.195 0 01-2.621.866c-.971.16-1.952.245-2.936.257-.46.01-.942.017-1.41.017l-1.703.003-159.762-.003z" fill="#000"/><path d="M38.914 31.973a7.808 7.808 0 011.012-3.746 7.786 7.786 0 012.69-2.793 7.944 7.944 0 00-6.27-3.398c-2.639-.278-5.196 1.582-6.54 1.582-1.371 0-3.441-1.555-5.67-1.509a8.336 8.336 0 00-4.078 1.22 8.363 8.363 0 00-2.95 3.076c-3.038 5.274-.771 13.025 2.14 17.288 1.456 2.087 3.157 4.419 5.384 4.336 2.18-.09 2.993-1.393 5.624-1.393 2.606 0 3.37 1.393 5.642 1.34 2.338-.037 3.811-2.096 5.216-4.203a17.285 17.285 0 002.386-4.87 7.517 7.517 0 01-3.334-2.773 7.544 7.544 0 01-1.252-4.157zm-4.292-12.741a7.687 7.687 0 001.751-5.498 7.782 7.782 0 00-5.04 2.614 7.306 7.306 0 00-1.796 5.294 6.427 6.427 0 005.085-2.41zm31.615 23.513h-7.436l-1.786 5.286h-3.15l7.044-19.558h3.272l7.044 19.558H68.02l-1.784-5.286zm-6.666-2.44h5.895l-2.906-8.579h-.082l-2.907 8.58zm27.089.597c0 4.431-2.366 7.279-5.936 7.279a4.812 4.812 0 01-4.476-2.495h-.068v7.063h-2.92V33.772h2.827v2.371h.054a5.051 5.051 0 014.529-2.52c3.61 0 5.99 2.86 5.99 7.28zm-3.001 0c0-2.887-1.489-4.785-3.76-4.785-2.23 0-3.73 1.938-3.73 4.785 0 2.873 1.5 4.798 3.73 4.798 2.271 0 3.76-1.885 3.76-4.798zm18.656 0c0 4.431-2.366 7.279-5.936 7.279a4.812 4.812 0 01-4.476-2.495h-.067v7.063h-2.92V33.772h2.826v2.371h.054a5.051 5.051 0 014.53-2.52c3.61 0 5.989 2.86 5.989 7.28zm-3.001 0c0-2.887-1.488-4.785-3.759-4.785-2.23 0-3.731 1.938-3.731 4.785 0 2.873 1.5 4.798 3.731 4.798 2.27 0 3.759-1.885 3.759-4.798zm13.348 1.68c.216 1.94 2.096 3.213 4.664 3.213 2.461 0 4.231-1.274 4.231-3.023 0-1.518-1.068-2.427-3.596-3.05l-2.528-.61c-3.583-.868-5.246-2.547-5.246-5.273 0-3.374 2.933-5.692 7.099-5.692 4.122 0 6.949 2.318 7.044 5.692h-2.948c-.176-1.952-1.786-3.13-4.138-3.13s-3.961 1.192-3.961 2.927c0 1.383 1.028 2.197 3.543 2.82l2.149.528c4.003.95 5.666 2.561 5.666 5.422 0 3.66-2.907 5.951-7.532 5.951-4.326 0-7.247-2.238-7.436-5.775h2.989zm18.28-12.185v3.375h2.705v2.317h-2.705v7.862c0 1.22.542 1.79 1.731 1.79a9.08 9.08 0 00.96-.068v2.304a7.99 7.99 0 01-1.621.136c-2.88 0-4.003-1.085-4.003-3.85v-8.174h-2.068v-2.317h2.068v-3.375h2.933zm4.272 10.505c0-4.486 2.635-7.306 6.746-7.306 4.124 0 6.747 2.82 6.747 7.306 0 4.499-2.609 7.306-6.747 7.306-4.137 0-6.746-2.807-6.746-7.306zm10.518 0c0-3.078-1.407-4.894-3.772-4.894-2.366 0-3.771 1.83-3.771 4.894 0 3.09 1.405 4.893 3.771 4.893 2.365 0 3.772-1.803 3.772-4.893zm5.383-7.13h2.784v2.427h.068a3.399 3.399 0 011.254-1.897 3.386 3.386 0 012.167-.68 4.48 4.48 0 011 .11v2.737a4.062 4.062 0 00-1.311-.177 2.937 2.937 0 00-2.914 2.026 2.951 2.951 0 00-.129 1.255v8.458h-2.919v-14.26zm20.735 10.071c-.393 2.588-2.908 4.365-6.125 4.365-4.138 0-6.706-2.78-6.706-7.238 0-4.473 2.582-7.374 6.583-7.374 3.936 0 6.41 2.71 6.41 7.034v1.003h-10.046v.177a3.73 3.73 0 001.004 2.885 3.705 3.705 0 002.823 1.154 3.211 3.211 0 003.284-2.006h2.773zm-9.87-4.256h7.111a3.448 3.448 0 00-.209-1.387 3.424 3.424 0 00-3.28-2.232 3.592 3.592 0 00-2.563 1.053 3.612 3.612 0 00-1.059 2.566zM145.38 22.5v-7.159h1.427v1.081h.112c.175-.382.434-.68.776-.896.342-.216.774-.323 1.295-.323.803 0 1.416.23 1.841.692.426.461.638 1.118.638 1.971V22.5h-1.433v-4.298c0-.598-.125-1.041-.375-1.331-.245-.295-.631-.442-1.157-.442-.347 0-.647.077-.901.23a1.51 1.51 0 00-.592.647c-.136.276-.204.608-.204.995V22.5h-1.427zm-6.198.138c-.697 0-1.3-.149-1.808-.448a2.968 2.968 0 01-1.164-1.279c-.272-.558-.408-1.22-.408-1.984v-.013c0-.769.136-1.43.408-1.984.276-.554.666-.98 1.17-1.279.509-.299 1.109-.448 1.802-.448.697 0 1.298.15 1.802.448.504.295.892.72 1.164 1.279.276.554.414 1.215.414 1.984v.013c0 .765-.138 1.426-.414 1.984-.272.554-.66.98-1.164 1.28-.5.298-1.101.447-1.802.447zm0-1.2c.408 0 .754-.098 1.039-.296.285-.202.502-.49.651-.863.149-.374.224-.824.224-1.352v-.013c0-.532-.075-.984-.224-1.358-.149-.373-.366-.659-.651-.857-.285-.202-.631-.303-1.039-.303-.408 0-.754.101-1.039.303-.285.198-.504.484-.657.857-.149.374-.224.826-.224 1.358v.013c0 .528.075.978.224 1.352.153.373.372.66.657.863.285.198.631.297 1.039.297zm-9.223 1.2c-.697 0-1.3-.149-1.808-.448a2.968 2.968 0 01-1.164-1.279c-.272-.558-.408-1.22-.408-1.984v-.013c0-.769.136-1.43.408-1.984.276-.554.666-.98 1.17-1.279.509-.299 1.109-.448 1.802-.448.697 0 1.298.15 1.802.448.504.295.892.72 1.164 1.279.276.554.414 1.215.414 1.984v.013c0 .765-.138 1.426-.414 1.984-.272.554-.66.98-1.164 1.28-.5.298-1.101.447-1.802.447zm0-1.2c.408 0 .754-.098 1.039-.296.285-.202.502-.49.651-.863.149-.374.223-.824.223-1.352v-.013c0-.532-.074-.984-.223-1.358-.149-.373-.366-.659-.651-.857-.285-.202-.631-.303-1.039-.303-.408 0-.754.101-1.039.303-.285.198-.504.484-.657.857-.149.374-.224.826-.224 1.358v.013c0 .528.075.978.224 1.352.153.373.372.66.657.863.285.198.631.297 1.039.297zm-8.809 1.2c-.574 0-1.074-.083-1.499-.25-.425-.171-.763-.407-1.012-.705a1.959 1.959 0 01-.441-1.055v-.013h1.433v.013c.092.268.268.485.526.652.259.168.601.251 1.026.251.294 0 .55-.042.77-.125.223-.084.398-.2.526-.35a.77.77 0 00.19-.514v-.013a.72.72 0 00-.269-.567c-.18-.154-.476-.279-.888-.376l-1.144-.263c-.447-.101-.818-.24-1.111-.416a1.73 1.73 0 01-.651-.645 1.875 1.875 0 01-.211-.91v-.007c0-.417.119-.786.355-1.107.237-.325.564-.578.98-.758.421-.185.901-.277 1.44-.277.544 0 1.017.086 1.42.257.408.167.73.4.967.699.237.294.377.637.421 1.028v.007h-1.368v-.014c-.066-.25-.224-.459-.473-.626-.246-.167-.57-.25-.974-.25-.258 0-.488.042-.69.125-.202.08-.362.191-.48.336a.771.771 0 00-.171.501v.013c0 .15.037.282.112.396.079.11.202.209.368.296.167.084.381.159.644.225l1.138.257c.684.162 1.192.397 1.525.705.338.308.507.72.507 1.24v.012c0 .44-.13.829-.388 1.167-.259.334-.612.596-1.059.785-.443.184-.949.276-1.519.276zm-13.882 2.387c-.605 0-1.131-.084-1.578-.25-.443-.168-.794-.4-1.052-.7a1.991 1.991 0 01-.474-1.041l.007-.013h1.446l.007.013c.061.246.234.448.519.606.285.159.667.238 1.144.238.588 0 1.046-.134 1.375-.402.333-.268.499-.644.499-1.128v-1.404h-.111a2.31 2.31 0 01-.54.66c-.219.18-.469.316-.749.408a2.91 2.91 0 01-.914.139c-.605 0-1.131-.145-1.578-.435a2.896 2.896 0 01-1.026-1.213c-.237-.519-.355-1.114-.355-1.787v-.013c0-.681.12-1.283.362-1.806a2.858 2.858 0 011.032-1.233c.447-.298.98-.448 1.598-.448.333 0 .638.053.914.158a2.342 2.342 0 011.275 1.141h.086V15.34h1.427v7.014c0 .54-.136 1.01-.408 1.41-.267.4-.649.71-1.144.93-.495.22-1.083.33-1.762.33zm-.02-4.06c.403 0 .75-.095 1.039-.284.289-.194.511-.46.664-.798.158-.338.237-.73.237-1.173v-.014c0-.439-.079-.83-.237-1.173a1.85 1.85 0 00-.664-.804c-.289-.193-.636-.29-1.039-.29-.403 0-.747.097-1.032.29a1.84 1.84 0 00-.645.804c-.149.339-.223.73-.223 1.174v.013c0 .444.074.835.223 1.173.149.338.364.604.645.798.285.189.629.283 1.032.283zM95.053 22.5v-7.159h1.427v1.081h.111c.176-.382.434-.68.776-.896.342-.216.774-.323 1.296-.323.802 0 1.416.23 1.841.692.425.461.638 1.118.638 1.971V22.5h-1.434v-4.298c0-.598-.125-1.041-.375-1.331-.245-.295-.63-.442-1.157-.442-.346 0-.646.077-.9.23a1.51 1.51 0 00-.593.647c-.135.276-.203.608-.203.995V22.5h-1.427zm-4.627 0v-7.159h1.433V22.5h-1.433zm.723-8.438a.86.86 0 01-.63-.263.864.864 0 01-.264-.633c0-.246.088-.455.263-.626a.86.86 0 01.631-.264.86.86 0 01.632.264c.175.171.263.38.263.626a.864.864 0 01-.263.633.86.86 0 01-.632.264zM77.251 22.5v-7.159h1.427v1.101h.112c.158-.395.403-.7.736-.916.338-.216.741-.323 1.21-.323.325 0 .616.053.875.158.258.106.48.255.664.448.188.19.335.413.44.673h.112c.119-.26.285-.484.5-.673a2.32 2.32 0 01.75-.448c.289-.105.596-.158.92-.158.482 0 .894.094 1.236.283.342.185.603.453.783.805.18.351.27.775.27 1.272V22.5h-1.428v-4.595c0-.33-.05-.602-.15-.817a1.03 1.03 0 00-.461-.494c-.202-.11-.456-.165-.763-.165a1.45 1.45 0 00-1.322.765 1.617 1.617 0 00-.183.777V22.5h-1.427v-4.74a1.39 1.39 0 00-.171-.705 1.09 1.09 0 00-.474-.461 1.53 1.53 0 00-.73-.165c-.285 0-.541.075-.769.224a1.59 1.59 0 00-.533.607c-.131.25-.197.531-.197.843V22.5h-1.427zm-6.198.138c-.697 0-1.3-.149-1.808-.448a2.966 2.966 0 01-1.164-1.279c-.272-.558-.408-1.22-.408-1.984v-.013c0-.769.136-1.43.408-1.984.276-.554.666-.98 1.17-1.279.509-.299 1.11-.448 1.802-.448.697 0 1.297.15 1.802.448.504.295.892.72 1.163 1.279.277.554.415 1.215.415 1.984v.013c0 .765-.138 1.426-.415 1.984-.271.554-.66.98-1.163 1.28-.5.298-1.1.447-1.802.447zm0-1.2c.408 0 .754-.098 1.039-.296.285-.202.502-.49.65-.863.15-.374.224-.824.224-1.352v-.013c0-.532-.074-.984-.223-1.358-.15-.373-.366-.659-.651-.857-.285-.202-.631-.303-1.04-.303-.407 0-.753.101-1.038.303-.285.198-.504.484-.657.857-.15.374-.224.826-.224 1.358v.013c0 .528.075.978.224 1.352.153.373.372.66.657.863.285.198.631.297 1.039.297zm-9.861 1.292c-.877 0-1.637-.201-2.282-.606-.64-.404-1.133-.977-1.479-1.72-.346-.743-.52-1.626-.52-2.65v-.013c0-1.029.174-1.914.52-2.657.346-.742.84-1.316 1.48-1.72.64-.405 1.4-.607 2.281-.607.697 0 1.326.139 1.887.416.566.272 1.028.65 1.388 1.133.364.484.585 1.04.664 1.668v.04h-1.467l-.006-.027a2.422 2.422 0 00-.48-1.015 2.4 2.4 0 00-.855-.666 2.632 2.632 0 00-1.13-.237c-.566 0-1.057.15-1.474.448-.412.3-.732.723-.96 1.273-.223.544-.335 1.195-.335 1.95v.014c0 .747.112 1.395.335 1.944.228.55.548.974.96 1.273.417.299.91.448 1.48.448.416 0 .793-.07 1.13-.211.343-.14.627-.34.855-.6.228-.264.384-.573.467-.93l.013-.026h1.473l-.006.033a3.384 3.384 0 01-.67 1.602 3.594 3.594 0 01-1.369 1.068c-.556.25-1.19.376-1.9.376z" fill="#fff"/></g><defs><clipPath id="clip0_161_959"><path fill="#fff" d="M0 0h188v63H0z"/></clipPath></defs></svg>