<svg xmlns="http://www.w3.org/2000/svg" width="30" height="30" viewBox="0 0 30 30" fill="none">
    <path d="M28.75 5H5H3.75C3.06125 5 2.5 4.43875 2.5 3.75C2.5 3.06125 3.06125 2.5 3.75 2.5H22.5V3.75H25V1.25C25 0.56 24.44 0 23.75 0H3.75C1.67875 0 0 1.67875 0 3.75V25C0 27.7612 2.23875 30 5 30H28.75C29.44 30 30 29.44 30 28.75V6.25C30 5.56 29.44 5 28.75 5ZM22.5 20C21.1187 20 20 18.8813 20 17.5C20 16.1187 21.1187 15 22.5 15C23.8813 15 25 16.1187 25 17.5C25 18.8813 23.8813 20 22.5 20Z" fill="#026FD3"></path>
</svg>