<svg xmlns="http://www.w3.org/2000/svg" width="28" height="28" viewBox="0 0 28 28" fill="none">
    <path d="M24 0.25H4C1.9325 0.25 0.25 1.9325 0.25 4V24C0.25 26.0675 1.9325 27.75 4 27.75H24C26.0675 27.75 27.75 26.0675 27.75 24V4C27.75 1.9325 26.0675 0.25 24 0.25ZM9 10.25C9 7.48875 11.2387 5.25 14 5.25C16.7612 5.25 19 7.48875 19 10.25V11.5C19 14.2613 16.7612 16.5 14 16.5C11.2387 16.5 9 14.2613 9 11.5V10.25ZM22.3988 25.25H5.60125C4.7875 25.25 4.19125 24.4862 4.38875 23.6963L4.87625 21.7487C5.10625 20.83 5.835 20.12 6.75875 19.915L10.875 19L11.0288 18.3838C11.94 18.7787 12.9438 19 14 19C15.0562 19 16.0588 18.7787 16.9713 18.3838L17.125 19L21.2412 19.915C22.1662 20.12 22.895 20.83 23.1237 21.7487L23.6112 23.6963C23.8087 24.485 23.2113 25.25 22.3988 25.25Z" fill="#026FD3"></path>
</svg>