<svg width="24" height="25" viewBox="0 0 24 25" fill="none" xmlns="http://www.w3.org/2000/svg">
    <circle opacity="0.3" cx="12" cy="12.75" r="12" transform="rotate(-90 12 12.75)" fill="white"></circle>
    <path d="M12.5497 7.95321L12.1565 8.34628C12.0329 8.4697 11.9645 8.63467 11.9645 8.81028C11.9645 8.98609 12.0329 9.16599 12.1565 9.2894L14.6827 11.8308H6.65668C6.29473 11.8308 6 12.095 6 12.4568V13.013C6 13.3748 6.29473 13.7058 6.65668 13.7058H14.7113L12.1565 16.2421C12.0329 16.3657 11.9645 16.5212 11.9645 16.697C11.9645 16.8726 12.0329 17.033 12.1565 17.1565L12.5497 17.5475C12.8056 17.8033 13.2219 17.8022 13.4778 17.5464L17.8084 13.2153C17.9317 13.0919 18 12.9265 18 12.7494V12.7475C18 12.5718 17.9317 12.4068 17.8084 12.2835L13.4779 7.95321C13.222 7.69721 12.8056 7.69721 12.5497 7.95321Z" fill="white"></path>
</svg>
