<svg xmlns="http://www.w3.org/2000/svg" viewBox="0 0 12 12">
<path d="M6.83917 0.197295C7.10223 -0.0657648 7.52874 -0.0657651 7.7918 0.197295L9.80237 2.20786C10.0654 2.47092 10.0654 2.89743 9.80237 3.16049L9.08464 3.87821C8.82158 4.14127 8.39508 4.14127 8.13202 3.87821L6.12145 1.86765C5.85839 1.60459 5.85839 1.17808 6.12145 0.91502L6.83917 0.197295ZM4.17735 2.85911C4.44041 2.59605 4.86692 2.59605 5.12998 2.85911L7.1409 4.87002C7.40396 5.13308 7.40397 5.55959 7.1409 5.82265L3.16083 9.80271C3.03451 9.92903 2.86317 10 2.68452 10H0.673608C0.301585 10 0 9.69842 0 9.32639V7.31548C0 7.13683 0.0709698 6.96549 0.197295 6.83917L4.17735 2.85911Z" fill="currentColor"/>
</svg>
